<svg width="43" height="44" viewBox="0 0 43 44" fill="none" xmlns="http://www.w3.org/2000/svg">
<path d="M21.5 0C15.7978 0 10.3292 2.31785 6.2972 6.44365C2.26517 10.5695 0 16.1652 0 22C0 27.8348 2.26517 33.4306 6.2972 37.5564C10.3292 41.6822 15.7978 44 21.5 44C27.2022 44 32.6708 41.6822 36.7028 37.5564C40.7348 33.4306 43 27.8348 43 22C43 16.1652 40.7348 10.5695 36.7028 6.44365C32.6708 2.31785 27.2022 0 21.5 0V0ZM27.1682 39.936H27.0001C26.8749 39.9429 26.7497 39.9236 26.632 39.8792C26.5144 39.8349 26.4068 39.7664 26.316 39.678C26.232 39.5874 26.1665 39.4806 26.1232 39.3639C26.0799 39.2472 26.0598 39.1228 26.0639 38.998V36.418C26.0756 35.562 26.0834 34.698 26.0834 33.824C26.0802 33.1854 25.9888 32.5504 25.8117 31.938C25.645 31.3195 25.3085 30.7629 24.8423 30.334C26.091 30.2106 27.3185 29.9201 28.4934 29.47C29.4845 29.0846 30.3811 28.4819 31.1203 27.704C31.8493 26.92 32.3907 25.976 32.7035 24.942C33.0865 23.678 33.2683 22.362 33.2429 21.038C33.2487 20.1143 33.0897 19.1973 32.7738 18.332C32.4547 17.46 31.972 16.6603 31.3529 15.978C31.4858 15.634 31.5835 15.276 31.6421 14.91C31.7783 14.0719 31.7544 13.2148 31.5718 12.386C31.4739 11.9098 31.3412 11.4419 31.175 10.986C31.1115 10.9609 31.0437 10.9487 30.9756 10.95H30.7802C30.3697 10.954 29.9612 11.024 29.5723 11.154C29.1423 11.282 28.7201 11.442 28.3116 11.632C27.9054 11.818 27.5099 12.0277 27.1271 12.26C26.7784 12.4704 26.4362 12.6918 26.101 12.924C23.0872 12.0646 19.9011 12.0646 16.8873 12.924C16.5507 12.6939 16.2086 12.4725 15.8611 12.26C15.473 12.0251 15.0709 11.8154 14.6571 11.632C14.25 11.4371 13.8276 11.2772 13.3945 11.154C13.0115 11.0244 12.6114 10.9556 12.2081 10.95H12.0126C11.9457 10.9497 11.8793 10.9626 11.8172 10.988C11.6475 11.4438 11.5084 11.9108 11.4009 12.386C11.2313 13.2168 11.2134 14.0725 11.3481 14.91C11.4067 15.276 11.5025 15.634 11.6354 15.978C11.0168 16.6604 10.5347 17.4601 10.2164 18.332C9.90051 19.1973 9.74155 20.1143 9.74732 21.038C9.72146 22.3525 9.89689 23.663 10.2672 24.922C10.5936 25.956 11.1331 26.906 11.8524 27.704C12.5951 28.476 13.4903 29.078 14.4793 29.47C15.6481 29.93 16.8736 30.224 18.1206 30.344C17.7727 30.666 17.4951 31.064 17.3114 31.504C17.1355 31.942 17.0124 32.4 16.9518 32.868C16.2945 33.1904 15.5756 33.3598 14.8467 33.364C14.1698 33.391 13.5019 33.1978 12.9391 32.812C12.3984 32.4026 11.9403 31.8898 11.5905 31.302C11.434 31.0555 11.2595 30.8215 11.0686 30.602C10.8669 30.3718 10.6444 30.1615 10.404 29.974C10.1659 29.7922 9.90493 29.6442 9.62809 29.534C9.3564 29.4118 9.06292 29.3485 8.76614 29.348C8.69415 29.3504 8.62236 29.357 8.55114 29.368C8.45341 29.368 8.35568 29.38 8.26186 29.404C8.17795 29.4262 8.09855 29.4635 8.02732 29.514C7.99582 29.5324 7.96952 29.5588 7.95102 29.5907C7.93252 29.6226 7.92244 29.6589 7.92177 29.696C7.9296 29.7843 7.95623 29.8699 7.99978 29.9466C8.04334 30.0233 8.10277 30.0893 8.17391 30.14C8.33809 30.276 8.47686 30.38 8.58827 30.454L8.63909 30.492C8.8795 30.68 9.10818 30.884 9.32318 31.102C9.52645 31.282 9.70823 31.486 9.86264 31.708C10.0249 31.924 10.1636 32.16 10.277 32.406C10.408 32.652 10.5467 32.934 10.6914 33.254C11.0275 34.122 11.6256 34.858 12.3996 35.354C13.2108 35.8 14.1235 36.022 15.0441 35.998C15.3569 35.998 15.6696 35.978 15.9823 35.942C16.2872 35.892 16.5941 35.838 16.901 35.776V38.972C16.9061 39.1006 16.8849 39.2289 16.8385 39.3485C16.7921 39.4681 16.7216 39.5764 16.6317 39.6664C16.5417 39.7563 16.4343 39.8259 16.3164 39.8707C16.1985 39.9154 16.0727 39.9342 15.9471 39.926H15.8357C11.6581 38.5449 8.09958 35.6829 5.80101 31.8555C3.50243 28.028 2.61482 23.4866 3.29801 19.049C3.98119 14.6113 6.19028 10.5691 9.52748 7.65009C12.8647 4.73111 17.1107 3.12722 21.501 3.12722C25.8912 3.12722 30.1373 4.73111 33.4745 7.65009C36.8117 10.5691 39.0208 14.6113 39.7039 19.049C40.3871 23.4866 39.4995 28.028 37.2009 31.8555C34.9024 35.6829 31.3439 38.5449 27.1662 39.926V39.936H27.1682Z" fill="white"/>
</svg>
