<svg width="41" height="41" viewBox="0 0 41 41" fill="none" xmlns="http://www.w3.org/2000/svg">
<path fill-rule="evenodd" clip-rule="evenodd" d="M20.5 0C14.9322 0 14.2352 0.0245999 12.0478 0.123C9.86665 0.22345 8.3763 0.5699 7.0725 1.07625C5.7041 1.59048 4.46439 2.39713 3.4399 3.4399C2.39718 4.46444 1.59054 5.70413 1.07625 7.0725C0.5699 8.3763 0.22345 9.86665 0.123 12.0478C0.0225499 14.2352 0 14.9322 0 20.5C0 26.0678 0.0225499 26.7648 0.123 28.9521C0.22345 31.1333 0.5699 32.6237 1.07625 33.9275C1.5906 35.2958 2.39723 36.5355 3.4399 37.5601C4.46448 38.6028 5.70416 39.4094 7.0725 39.9237C8.3763 40.4301 9.86665 40.7766 12.0478 40.877C14.2352 40.9754 14.9322 41 20.5 41C26.0678 41 26.7648 40.9754 28.9521 40.877C31.1333 40.7766 32.6237 40.4301 33.9275 39.9237C35.2959 39.4095 36.5356 38.6028 37.5601 37.5601C38.6028 36.5356 39.4095 35.2959 39.9237 33.9275C40.4301 32.6237 40.7766 31.1333 40.877 28.9521C40.9754 26.7648 41 26.0678 41 20.5C41 14.9322 40.9754 14.2352 40.877 12.0478C40.7766 9.86665 40.4301 8.3763 39.9237 7.0725C39.4095 5.70413 38.6028 4.46444 37.5601 3.4399C36.5356 2.39713 35.2959 1.59048 33.9275 1.07625C32.6237 0.5699 31.1333 0.22345 28.9521 0.123C26.7648 0.0245999 26.0678 0 20.5 0ZM20.5 3.6941C25.9735 3.6941 26.6213 3.7146 28.782 3.813C30.7828 3.90525 31.8673 4.23735 32.5909 4.5182C33.5462 4.8913 34.2309 5.33615 34.9484 6.0516C35.6659 6.7691 36.1087 7.4538 36.4818 8.4091C36.7606 9.13275 37.0968 10.2172 37.187 12.2159C37.2854 14.3787 37.3059 15.0244 37.3059 20.5C37.3059 25.9735 37.2854 26.6213 37.187 28.782C37.0947 30.7828 36.7606 31.8673 36.4818 32.5909C36.1531 33.4814 35.6292 34.2869 34.9484 34.9484C34.2309 35.6659 33.5462 36.1087 32.5909 36.4818C31.8673 36.7606 30.7828 37.0968 28.7841 37.187C26.6234 37.2854 25.9755 37.3059 20.5 37.3059C15.0265 37.3059 14.3766 37.2854 12.218 37.187C10.2172 37.0947 9.13275 36.7606 8.4091 36.4818C7.51855 36.1533 6.71297 35.6293 6.0516 34.9484C5.37071 34.287 4.84673 33.4815 4.5182 32.5909C4.23735 31.8673 3.9032 30.7828 3.813 28.7841C3.7146 26.6213 3.6941 25.9755 3.6941 20.5C3.6941 15.0265 3.7146 14.3787 3.813 12.218C3.90525 10.2172 4.23735 9.13275 4.5182 8.4091C4.8913 7.4538 5.33615 6.7691 6.0516 6.0516C6.7691 5.3341 7.4538 4.8913 8.4091 4.5182C9.13275 4.23735 10.2172 3.9032 12.2159 3.813C14.3787 3.7146 15.0244 3.6941 20.5 3.6941ZM20.5 27.3326C18.6879 27.3326 16.95 26.6128 15.6686 25.3314C14.3872 24.05 13.6673 22.3121 13.6673 20.5C13.6673 18.6879 14.3872 16.95 15.6686 15.6686C16.95 14.3872 18.6879 13.6673 20.5 13.6673C22.3121 13.6673 24.05 14.3872 25.3314 15.6686C26.6128 16.95 27.3326 18.6879 27.3326 20.5C27.3326 22.3121 26.6128 24.05 25.3314 25.3314C24.05 26.6128 22.3121 27.3326 20.5 27.3326ZM20.5 9.97325C19.1176 9.97325 17.7488 10.2455 16.4716 10.7746C15.1944 11.3036 14.034 12.079 13.0565 13.0565C12.079 14.034 11.3036 15.1944 10.7746 16.4716C10.2455 17.7488 9.97325 19.1176 9.97325 20.5C9.97325 21.8824 10.2455 23.2512 10.7746 24.5284C11.3036 25.8056 12.079 26.966 13.0565 27.9435C14.034 28.921 15.1944 29.6964 16.4716 30.2254C17.7488 30.7545 19.1176 31.0267 20.5 31.0267C23.2919 31.0267 25.9694 29.9177 27.9435 27.9435C29.9177 25.9694 31.0267 23.2919 31.0267 20.5C31.0267 17.7081 29.9177 15.0306 27.9435 13.0565C25.9694 11.0823 23.2919 9.97325 20.5 9.97325ZM33.9029 9.5571C33.9029 9.88015 33.8393 10.2 33.7156 10.4985C33.592 10.797 33.4108 11.0682 33.1824 11.2966C32.9539 11.525 32.6828 11.7062 32.3843 11.8298C32.0858 11.9535 31.7659 12.0171 31.4429 12.0171C31.1198 12.0171 30.8 11.9535 30.5015 11.8298C30.203 11.7062 29.9318 11.525 29.7034 11.2966C29.475 11.0682 29.2938 10.797 29.1702 10.4985C29.0465 10.2 28.9829 9.88015 28.9829 9.5571C28.9829 8.90467 29.2421 8.27896 29.7034 7.81762C30.1648 7.35628 30.7905 7.0971 31.4429 7.0971C32.0953 7.0971 32.721 7.35628 33.1824 7.81762C33.6437 8.27896 33.9029 8.90467 33.9029 9.5571Z" fill="white"/>
</svg>
