<svg width="55" height="57" viewBox="0 0 55 57" fill="none" xmlns="http://www.w3.org/2000/svg">
<path d="M1.78226 56.6808C2.86677 57.2199 4.10566 57.0659 5.03524 56.2958L37.1832 30.8817C37.9578 30.2656 38.3451 29.4188 38.3451 28.4946C38.3451 27.5705 37.8803 26.6466 37.1832 26.1075L5.03525 0.693428C4.49299 0.231354 3.7958 8.78388e-07 3.09862 8.17438e-07C2.63383 7.76805e-07 2.16959 0.0773271 1.78227 0.308364C0.697757 0.84745 2.37302e-06 1.92529 2.27203e-06 3.08048L-2.17151e-06 53.9087C-2.2725e-06 55.0639 0.697752 56.1418 1.78226 56.6808ZM6.19723 9.47159L30.2885 28.4946L6.19723 47.5161L6.19723 9.47159ZM48.0282 52.6768L48.0282 3.77394C48.0282 1.84863 49.5775 0.308368 51.5141 0.308368C53.4508 0.308369 55 1.84863 55 3.77394L55 52.6768C55 54.6021 53.4508 56.1424 51.5141 56.1424C49.5775 56.1424 48.0282 54.6021 48.0282 52.6768Z" fill="white"/>
</svg>
