<svg width="36" height="32" viewBox="0 0 36 32" fill="none" xmlns="http://www.w3.org/2000/svg">
<path d="M11.0122 31.9827H10.8527C7.63941 31.9545 4.47263 31.2103 1.58161 29.8041C1.04982 29.5536 0.611956 29.1391 0.33212 28.6212C0.0522849 28.1033 -0.0548261 27.5092 0.0264671 26.9259C0.11488 26.3386 0.386119 25.7943 0.80146 25.3708C1.2168 24.9472 1.75501 24.666 2.33924 24.5674C4.13087 24.3278 5.85444 23.7223 7.40343 22.7885C4.71415 20.6807 2.6438 17.8828 1.41178 14.6913C0.179761 11.4998 -0.168023 8.03356 0.405284 4.66001C0.483017 4.12566 0.712254 3.62494 1.06572 3.21745C1.41918 2.80996 1.88199 2.51284 2.39906 2.36147C2.90212 2.20309 3.4405 2.19632 3.94736 2.34201C4.45422 2.48769 4.90723 2.77942 5.25015 3.18095C6.41452 4.71155 7.87774 5.98829 9.55054 6.9333C11.2233 7.87831 13.0706 8.47176 14.9798 8.67747C15.071 6.32267 16.0804 4.0978 17.791 2.4814C18.6451 1.66147 19.6535 1.02015 20.7574 0.59481C21.8612 0.169474 23.0385 -0.0313734 24.2205 0.00397188C25.4026 0.0393172 26.5658 0.310149 27.6424 0.800684C28.719 1.29122 29.6875 1.99165 30.4913 2.86116C30.7008 3.04678 30.961 3.16507 31.2383 3.2007C31.5155 3.23634 31.7971 3.18768 32.0465 3.06103C32.5219 2.83627 33.0512 2.75166 33.5727 2.81707C34.0943 2.88249 34.5865 3.09523 34.992 3.43049C35.3974 3.76574 35.6995 4.20967 35.8628 4.71049C36.0261 5.21131 36.044 5.74837 35.9144 6.259C35.4545 8.15802 34.5832 9.93226 33.3624 11.4557C33.0933 17.1416 30.5927 22.4903 26.406 26.3355C22.2192 30.1807 16.6858 32.2106 11.0122 31.9827V31.9827ZM11.0122 27.9852H11.1717C13.4898 28.0651 15.8006 27.683 17.9703 26.8609C20.14 26.0388 22.1252 24.7931 23.8111 23.196C25.4969 21.599 26.8497 19.6823 27.7911 17.5572C28.7325 15.4321 29.2437 13.1408 29.2951 10.8161C29.328 10.179 29.5901 9.57546 30.0328 9.11719C30.5191 8.50007 30.9338 7.82952 31.2689 7.11845C30.5506 7.11983 29.8402 6.96921 29.184 6.67645C28.5278 6.38369 27.9406 5.95539 27.4608 5.41953C26.9994 4.96093 26.4514 4.59921 25.8489 4.35553C25.2464 4.11186 24.6014 3.99114 23.9518 4.00043C23.2956 3.98342 22.6426 4.0965 22.0301 4.33317C21.4177 4.56984 20.8579 4.92544 20.3829 5.37956C19.7421 5.98917 19.2722 6.75682 19.0202 7.60568C18.7683 8.45454 18.7432 9.35484 18.9474 10.2165L19.4658 12.495L17.133 12.6549C14.7427 12.8503 12.3385 12.5226 10.0871 11.6943C7.83561 10.866 5.79063 9.55701 4.09377 7.85799C4.02099 10.4891 4.67755 13.0889 5.99043 15.3684C7.30332 17.6478 9.22109 19.5176 11.5305 20.7698L13.4246 21.8491L12.1685 23.648C10.8102 25.4339 8.94897 26.7706 6.82524 27.4855C8.18761 27.8278 9.58775 27.9957 10.9922 27.9852H11.0122Z" fill="white"/>
</svg>
